<?xml version="1.0" encoding="UTF-8"?>
<svg id="Layer_1" data-name="Layer 1" xmlns="http://www.w3.org/2000/svg" viewBox="0 0 234.83 200.78">
  <defs>
    <style>
      .cls-1 {
        fill: #7a553b;
      }
    </style>
  </defs>
  <path class="cls-1" d="M174.86,45.58l-2.55-8.02c-3.12,4.82-5.26,9.82-7.14,15.07-.66,1.85-1.18,3.63-2.13,5.36-.64,1.16-4.17,3.26-4.17,1.28v-5.65c-1.46,2.95-2.89,5.65-5.36,7.74-3.19,2.69-5.77,4.46-9.82,3.09-2.21-.75-3.9-2.15-4.67-4.63-3.91,4.2-7.9,7.63-12.2,11.05-.73,2.05-1.7,3.9-3.22,5.43l-3.1,3.13c-1.76,1.78-3.85,3.12-6.23,4.07-1.78.71-3.69.88-5.64,1.1-1.2.13-2.68-.11-3.72-.51-1.86-.72-2.32-2.23-1.97-3.95.44-2.17,1.64-3.92,4.17-4.15l-.4-4.12c-.25-2.59-.65-5.09-.96-7.7l-.47-3.95c-1.21,4.78-2.94,9.32-5.52,13.56-1.61,2.66-3.54,4.79-6.42,6.12-2.46,1.14-5.42-.08-6.45-2.59l-1.52-3.72-1.04,3.69c-.41,1.47-1.22,2.53-2.34,3.43-1.31,1.05-2.68,1.35-4.16.36-2-1.33-3.08-3.47-3.59-6.09-2.43,5.03-4.49,9.92-7.39,14.6-1.79,2.9-4.64,5.17-7.69,6.62-3.97,1.88-8.45,1.53-12.36-.4-6.13-3.02-12.41-8.66-16.99-14l-4.72.81.06,11.46.25,6.93.18,2.67c.5,7.24,2.11,14.15,3.52,21.27-.7,1.7-2.67,3.93-3.17,3.59l-.79-.54c-1.82-3.05-3.02-6.36-3.39-9.98-1.01-4.05-1.3-8.02-1.82-12.15l-.46-3.62-.24-2.91-.28-4.06-.4-6.97-.05-3.12.06-2.16c-5.08.5-15.3-1.87-17.55-5.83-2.37-4.18-.48-12.5,4.93-14.04,4.55-.52,8.55,1.82,12.38,4.96l.14-4.92.26-9.33.22-11.25.13-4.65.62-10.87.34-5.66.88-7.55c.25-2.14.75-4.44,1.39-6.47.36-.12.98,0,1.17.2.24.26.46.9.46,1.31l-.16,8.14-.18,12.98-.14,14.38-.06,11.28c-.01,2.53-.08,4.9.11,7.45,1.59-12.27,6.05-23.28,10.67-34.8,3.37-8.41,8.89-17.73,15.48-23.84C52.66,1.7,56.09.07,60.29,0c2.54-.04,5.07.73,7.03,2.43,3.05,2.64,5.02,5.94,6.36,9.74,1.67,4.72,2.48,9.44,1.99,14.58-1.13,11.74-5.41,23.06-12.53,32.43-2.52,3.31-5.36,5.94-8.42,8.69-4.98,4.47-10.67,7.83-16.64,10.88l-3.97,1.63,2.58,2.81c3.56,3.26,7.12,6.34,11.33,8.76,5.79,3.33,12.78,2.2,16.26-3.31,2.41-3.81,4.31-7.79,6.32-11.86,1.19-2.4,1.99-4.77,2.77-7.33.25-.82.74-1.95,1.24-2.54,1.14-.35,2.16.72,2.23,1.69l.16,2c.24,2.95,1.24,7.38,3.95,7.95.63-1.51,1.1-2.86,1.45-4.36l1.78-7.55c.16-.67.73-1.43,1.53-1.31.55.08,1.49.87,1.64,1.37l1.61,5.68c.35,1.25,1.05,2.81,2.01,3.7,1.26,1.17,3.23.28,4.18-.89,4.83-5.97,7.67-14.93,8.37-22.58l.27-2.9.22-2.41.25-3.12.21-3.13.33-4.71c.17-2.44.51-4.8.55-7.26l.15-9.01.26-6.69c.06-1.45.46-3.03,1.42-4.15.34-.4,1.34-.02,1.64.3.42.46.45,1.19.46,1.89l.04,23.36.22,18,.22,4.1.73,7.94c1.05-3.26,2.25-6.46,4.55-9.06,1.79-2.02,4.38-3.32,7.04-2.56,5.35,1.53,6.33,8.38,5.69,13.48,3.72-3.09,7.1-6.29,10.32-9.75-.29-1.31-.35-2.37-.24-3.58.47-5.12,1.14-11.37,5.45-14.43.92-.65,2.16-.96,3.27-.61,3.08.97,2.49,3.97,1.5,7.55-1.13,4.14-3.35,7.64-6.2,10.87.44,1.37.95,2.85,2.24,3.67,2.71,1.73,5.36,1.01,7.7-1.24,6.82-6.56,4.93-14.89,7.54-22.65.22-.66,1.54-.37,1.95-.08.57.4.92,1.19.98,1.98l.39,5.3c.15,1.96-.06,3.81.31,5.83,1.88-4.3,6.05-14.11,9.4-15.78,1.12-.56,2.42.37,3.12,1.28,1.63,2.13,1.82,5.49,3.82,8.85,2.25,3.78,6.79,3,10.44.45,4.61-3.22,8.88-6.85,12.64-11,1.65-1.82,2.08-4.03,2.14-6.42.8,5.09-2.18,9.75-5.62,13.69-2.98,3.41-6.47,6.17-10.28,8.64-1.59,1.03-3.42,1.6-5.38,1.81-3.66.38-6.93-1.95-8.38-5.48ZM41.17,72.99c6.32-3.52,11.74-8.02,16.46-13.49,2.34-2.71,4.33-5.47,5.99-8.66,1.48-2.85,3.13-5.58,3.96-8.69l1.89-7.06c2.23-8.32,1.55-17.8-2.35-25.48-1.62-3.2-4.55-6.08-8.04-6.03-1.84.03-3.9.06-5.42,1.13-5.86,4.14-11.65,12.93-14.74,19.52-3.42,7.31-6.26,14.65-8.86,22.29-2.45,7.18-4.03,14.32-4.33,21.88l-.16,4c2.14,1.48,3.73,3.1,5.49,4.98,3.65-1,6.85-2.58,10.1-4.39ZM141.18,53.36c2.2-2.81,4.91-7.85,4.47-11.01-.04-.32-.75-.79-1.04-.72-1.77.43-3.33,5.69-3.37,8.28l-.05,3.45ZM123.91,69.8c.76-3.72.5-7.19-.98-10.53-.83-1.87-3.09-3.19-5.06-2.02-1.05.62-1.78,2.17-2.35,3.32-2.27,4.63-3.31,9.62-3.44,14.83,4.43-.81,8.3-2.78,11.82-5.59ZM18.37,79.46v-7.23s-5.85-4.21-5.85-4.21c-1.88-1.35-3.83-1.87-6.16-1.82-1.32.03-2.11.45-2.68,1.74-1.03,2.33-.87,5.06.29,7.37,1.66,1.37,3.46,2.1,5.48,2.77,2.91.84,5.83,1.18,8.93,1.38ZM110.17,81.05c3.27.17,5.69-1.31,7.91-3.09.88-.72,1.73-1.42,2.34-2.43-2.81,1.34-5.19,2.42-8,2.96l-.29.95-1.96,1.61ZM108.1,81.46l-.54-2.6-1.59.43c-.32.09-.19,1.34.11,1.45l2.02.72Z"/>
  <path class="cls-1" d="M83.2,192.53c9.91-5.27,15.79-11.95,22.13-20.89,4.29-6.04,8.19-12.14,11.81-18.6,1.95-3.47,3.46-6.88,4.8-10.59.28-.79.06-1.59.06-2.38v-9.57s.24-4.08.24-4.08l.2-2.14,1.81-11.13c.06-.39,1.22-.5,1.56-.31,1.07.59.91,3.7.75,5.93l-.25,3.59-.23,2.9.02,11.68c0,5.26,1.77,14.95,5.25,18.87,1.94,2.19,4.25-1.81,5.14-5.25.59-2.26,1.27-4.52,1.41-6.8.07-1.23-.38-2.64-.37-3.89l.1-10.28.24-3.8.26-6.44.21-5.12.19-2.68.3-3.81.46-5.05.25-3.03.9-6.28c.05-.34.7-.76.99-.66.34.13.7.68.71,1.05l.11,3.66-.12,17.69-.24,5.05-.21,2.91-.26,3.81-.21,3.65.02,8.01c.36,5.1.77,10.04,1.7,15.05.83,4.44,3.13,12.64,7.15,13.71,3.21.85,6.29-6.97,7.45-10.61,1.54-4.85,2.67-9.65,3.5-14.71.17-1.03-.39-2.35-.45-3.33l-.22-4.1.32-8.74c.06-1.6.5-3.24,1.65-4.37.6-.29,1.77.22,2.27.71-.32,3.53-.19,6.9-.07,10.48s.4,8.84,3.12,10.39,5.34-6.43,6.73-9.5l3.37-7.42.26-4.27c.19-3.07,1.06-5.99,2.76-8.54,2.02-3.03,7.22-6.63,10.42-4.81l.91,1.78c.17.33-.15,1.23-.44,1.4-1-.29-2.26-.91-3.28-.83-1.92.15-3.28,1.69-3.96,3.22l-1.05,2.37c-.49,1.1-.78,2.27-.86,3.46l-.17,2.48c-.23,3.41.89,7.24,3.58,9.58,1.78,1.55,4.61.89,6.44-.36,2.61-1.79,4.35-4.3,5.87-7.09,2.71-4.96,4.94-9.97,6.94-15.33l.69-3.12c.8-3.6,3.56-10.8,6.81-11.2,1.88-.23,4.13,1.32,4.4,3.25.21,1.55-.47,3.08-1.02,4.45-1.31,3.28-3.5,5.92-6.72,7.66.23.72.69,1.77,1.39,2.2,4.1,2.55,8.38-.78,11.52-4.18,4.54-4.93,8.43-10.22,12.21-15.87.43-.28.47-.11.24.21l-2.42,4.38c-2.03,4.24-4.37,8.22-7.15,12-1.89,2.56-4.1,4.5-6.71,6.27-3.89,2.63-9.22,3.05-11.92-.84-3.14,7.98-5.83,15.25-12.35,21.12-1.92,1.73-4.09,2.67-6.71,2.73-4.84.11-7.37-2.76-8.94-7.42l-2.71,7.72c-1.31,3.75-4.13,8.89-7.99,9.71-.77.16-2.22-.1-3.01-.44-1.28-.56-2.03-1.75-2.91-2.98-.87,7.41-1.74,13.33-4.99,20.13-1.05,2.19-2.32,4.3-4.38,5.68-2.2,1.47-4.91.68-6.75-1.23s-2.9-4.54-3.83-7.11l-.57-.93-2.52-9.62c-.92,2.95-2.13,5.66-4.17,7.75-1.87,1.92-4.81,1.74-6.75-.03-2.17-1.98-3.13-4.79-3.91-7.57l-.47-1.71-.75-3.28-.6-3.45c-1.26,4.01-2.46,7.57-4.15,11.23-2.7,5.86-5.63,11.37-9.01,16.87-5.42,8.84-11.78,16.7-20.22,22.69l-1.71,1.21c-1.54,1.09-3.13,2.12-4.9,2.76l-5.12,1.84c-9.04,2.2-17.6-.59-24.16-7.03-1.01-.99-1.87-1.93-2.64-3.11l-2.06-3.16-1.25-2.62-.84-1.82c-2.46-6.58-3.95-14.25-3.21-21.28.47-4.49,1.53-8.75,3.06-12.93l1.67-3.4c3.01-5.42,6.73-10.15,11.13-14.5,2.52-2.49,5-4.75,8.12-6.52,4.51-2.56,9.05-4.09,14.29-4.6l5.58.15c-2.01-2.21-4.02-4.55-4.71-7.54-.53-2.34-.06-5.18,1.06-7.23,1.35-2.47,5.6-4.8,8.6-4.38-.07-2.34-.02-4.61.64-6.78-.02,2.55.02,4.79.99,7.12,2.92.66,5.63,2.38,6.97,5.23.82,1.76-.47,4.46-2.39,4.76-1.48.23-2.66-1.23-3.51-2.24-1.18-1.39-1.63-3.02-2.19-4.83-.98-.29-2.25-.53-3.32-.27-2.57.63-4.17,5.04-3.02,8.64.49,1.54,1.58,2.81,2.55,4.11,1.35,1.81,2.96,3.48,5.26,4.07.69.18,1.77.39,1.87,1.32-.84,1.27-2.57,1.76-4.06,1.69l-3.91-.19-3.29-.04-4.37.23c-1.41.07-3.03.59-4.47.98-2.58.71-5.05,1.8-7.37,3.13s-3.9,3.07-5.7,4.85c-3.32,3.28-6.21,6.75-8.69,10.72-1.64,2.62-3.22,5.1-4.16,8.06-1.46,4.59-2.24,9.25-1.84,14.05.7,8.36,3.05,17.12,8.73,23.4,6.9,7.62,17.58,9.33,26.76,4.45ZM140.96,116.32l.35-3.78.2-3.94.08-10.96-.22.14-.11,8.63-.28,5-.02,4.91ZM213.9,98.92c-.28-.33-.97-.71-1.5-.82-1.97,3.16-3.11,6.44-3.36,10.11,2.84-1.34,6.28-7.63,4.86-9.29ZM94.89,104.06c1.03,2.92,3.97,4.4,3.86,3.32-.14-1.4-2.17-2.53-3.86-3.32Z"/>
  <path class="cls-1" d="M173.03,90.45c-3.03,1.74-6.96,2.63-8.32.05-.57-1.07-.55-2.08-.16-3.2.65-1.86,1.4-3.51,2.63-5.1,2.41-3.1,5.75-5.59,9.58-6.63,2.68-.73,5.21.12,7.56,1.52l-.57-7.47c-.14-1.83-.42-3.53.29-5.28l1.31.37-.45.51c-.07.08.1.39.13.54l1.72,10.53,8.55-7.15c2.56-2.14,5.22-3.93,8.17-5.58l-3.77,3.03-1.8,1.56-10.83,10.79c.04.76.47,1.53.88,2.06,2.47,3.27,3.15,7.07,2.2,11.03l-2.12,1.27c-.32.19-1.14.2-1.44.02-1.65-.97-1.79-4.92-1.91-7.37l-.23-4.53c-3.64,3.38-7.17,6.59-11.42,9.04ZM173.27,87.35c3.27-2.24,6.14-4.74,9.34-7.49-2.7-2.08-6.16-2.19-8.99-.3s-4.95,4.23-6.04,7.43c-.11.34-.04,1.15.1,1.46.54,1.21,3.52.31,5.59-1.1Z"/>
  <path class="cls-1" d="M149.62,26.96c-.09-.91-.24-1.62-.65-2.41-.35-1.54-.12-3.31.53-4.84.98-2.31,2.12-4.47,3.46-6.58l1.6-2.53c.3-.48,1.29-.94,1.8-.6,1.05.69,1.32,2.03.93,3.13-1.21,3.4-3.03,6.33-5.13,9.25-1.06,1.47-1.92,2.95-2.53,4.58Z"/>
  <path class="cls-1" d="M166,106.76c.14,2.68-3.3,4.16-5.07,3.46-.71-.28-.67-1.22-.44-1.78,1.09-2.67,2.91-5.99,4.58-4.53.34.3.93,1,.84,1.47-.18.89-.83,1.56-1.49,2.25-.03.03.64.22.77.07l.82-.94Z"/>
</svg>